<svg xmlns="http://www.w3.org/2000/svg" xmlns:xlink="http://www.w3.org/1999/xlink" viewBox="0 0 253.66 287.95"><defs><style>.cls-1{isolation:isolate;}.cls-2{stroke:#efefef;stroke-miterlimit:10;fill:url(#Безымянный_градиент_90);}.cls-3{fill:#fff;}.cls-4{mix-blend-mode:multiply;}.cls-5{fill:#e3ccf2;}</style><linearGradient id="Безымянный_градиент_90" x1="2.58" y1="215.72" x2="251.09" y2="72.24" gradientUnits="userSpaceOnUse"><stop offset="0" stop-color="#7743ba"/><stop offset="0.25" stop-color="#7c45b7"/><stop offset="0.54" stop-color="#8a4ab0"/><stop offset="0.85" stop-color="#a153a4"/><stop offset="1" stop-color="#af589c"/></linearGradient></defs><title>Ресурс 1</title><g class="cls-1"><g id="Слой_2" data-name="Слой 2"><g id="Logo"><g id="Слой_3" data-name="Слой 3"><path class="cls-2" d="M.5,80V208a15.5,15.5,0,0,0,7.75,13.42l110.83,64a15.5,15.5,0,0,0,15.5,0l110.83-64A15.5,15.5,0,0,0,253.16,208V80a15.5,15.5,0,0,0-7.75-13.42l-110.83-64a15.5,15.5,0,0,0-15.5,0L8.25,66.56A15.5,15.5,0,0,0,.5,80Z"/></g><g id="_Группа_" data-name="&lt;Группа&gt;"><g id="_Группа_2" data-name="&lt;Группа&gt;"><path id="_Контур_" data-name="&lt;Контур&gt;" class="cls-3" d="M188.63,141.87A61.95,61.95,0,1,0,87.41,189.74l3.66-8a53.51,53.51,0,1,1,71.23,0l3.66,8A61.85,61.85,0,0,0,188.63,141.87Z"/><path id="_Контур_2" data-name="&lt;Контур&gt;" class="cls-3" d="M126.68,66.15A75.79,75.79,0,0,0,81.31,202.67l3.66-8a67.27,67.27,0,1,1,83.43,0l3.66,8A75.79,75.79,0,0,0,126.68,66.15Z"/><path id="_Контур_3" data-name="&lt;Контур&gt;" class="cls-3" d="M160.08,176.93a48.45,48.45,0,1,0-66.79,0l3.76-8.2a40,40,0,1,1,59.27,0Z"/><circle id="_Контур_4" data-name="&lt;Контур&gt;" class="cls-3" cx="126.68" cy="141.87" r="12.07"/><path id="_Составной_контур_" data-name="&lt;Составной контур&gt;" class="cls-3" d="M135.7,154.86,142.19,169H130.9V157.11a15.47,15.47,0,0,1-8.44,0V169h-11l6.41-14a15.86,15.86,0,0,1-5.93-7.32L74.68,229.21H84L96.5,201.82h26v27.39h8.44V201.82h26.27l12.53,27.39H179l-37.46-81.9A15.85,15.85,0,0,1,135.7,154.86Zm10.09,22.06,2.26,4.94H130.9v-4.94Zm-23.33,0v4.94H105.64l2.26-4.94Zm-22.35,17,1.92-4.19h20.43v4.19Zm30.79,0v-4.19h20.75l1.92,4.19Z"/></g><g id="_Группа_3" data-name="&lt;Группа&gt;" class="cls-4"><path id="_Контур_5" data-name="&lt;Контур&gt;" class="cls-5" d="M194,142a67.17,67.17,0,0,1-25.56,52.72l3.66,8A75.79,75.79,0,0,0,126.68,66.15V74.7A67.35,67.35,0,0,1,194,142Z"/><path id="_Контур_6" data-name="&lt;Контур&gt;" class="cls-5" d="M160.08,176.93a48.41,48.41,0,0,0-33.4-83.5v8.44a40,40,0,0,1,29.64,66.87Z"/><path id="_Составной_контур_2" data-name="&lt;Составной контур&gt;" class="cls-5" d="M130.9,201.82h26.27l12.53,27.39H179l-37.46-81.9a15.85,15.85,0,0,1-5.82,7.55L142.19,169H130.9V157.11a15.8,15.8,0,0,1-4.22.59v71.52h4.22Zm0-24.89h14.89l2.26,4.94H130.9Zm0,12.82h20.75l1.92,4.19H130.9Z"/><path id="_Контур_7" data-name="&lt;Контур&gt;" class="cls-5" d="M138.75,141.87a12.07,12.07,0,0,0-12.07-12.07v24.14A12.07,12.07,0,0,0,138.75,141.87Z"/><path id="_Контур_8" data-name="&lt;Контур&gt;" class="cls-5" d="M188.63,141.87a62,62,0,0,0-61.95-61.95v8.44a53.48,53.48,0,0,1,35.62,93.41l3.66,8A61.85,61.85,0,0,0,188.63,141.87Z"/></g></g></g></g></g></svg>